<?xml version="1.0" encoding="utf-8"?>
<!-- Generator: Adobe Illustrator 21.0.0, SVG Export Plug-In . SVG Version: 6.00 Build 0)  -->
<svg version="1.1" id="Layer_1" xmlns="http://www.w3.org/2000/svg" xmlns:xlink="http://www.w3.org/1999/xlink" x="0px" y="0px"
	 viewBox="0 0 25.2 25.2" style="enable-background:new 0 0 25.2 25.2;" xml:space="preserve">
<style type="text/css">
	.st0{fill-rule:evenodd;clip-rule:evenodd;fill:#333333;}
</style>
<path class="st0" d="M17.7,2.2c-2.8,0-5.4,1.1-7.2,3v-3H6V23h4.5v-3c1.9,1.8,4.4,3,7.2,3h1.7v-1.3h-1.7c-2.9,0-5.6-1.4-7.2-3.6
	c-0.5-0.7-0.9-1.4-1.3-2.2v5.8h-2V3.5h2v5.8c0.3-0.8,0.7-1.6,1.3-2.2c1.7-2.2,4.3-3.6,7.2-3.6h0.4v2h-0.4c-3.9,0-7.1,3.2-7.1,7.1
	c0,3.9,3.2,7.1,7.1,7.1h1.7v-4.5h-1.7c-1.4,0-2.6-1.2-2.6-2.6c0-1.4,1.2-2.6,2.6-2.6h1.7V8.7h-1.7c-2.1,0-3.9,1.7-3.9,3.9
	c0,2.1,1.7,3.9,3.9,3.9h0.4v2h-0.4c-3.2,0-5.9-2.6-5.9-5.9c0-3.2,2.6-5.9,5.9-5.9h1.7V2.2H17.7z"/>
</svg>
